<mxfile host="Electron" modified="2024-07-15T17:25:26.732Z" agent="Mozilla/5.0 (Windows NT 10.0; Win64; x64) AppleWebKit/537.36 (KHTML, like Gecko) draw.io/22.1.2 Chrome/114.0.5735.289 Electron/25.9.4 Safari/537.36" etag="jRfEF4-iotlT39DLT9QP" version="22.1.2" type="device">
  <diagram name="Страница — 1" id="lvY4uRLoYVNKcpedugHR">
    <mxGraphModel dx="1373" dy="634" grid="1" gridSize="10" guides="1" tooltips="1" connect="1" arrows="1" fold="1" page="1" pageScale="1" pageWidth="827" pageHeight="1169" math="0" shadow="0">
      <root>
        <mxCell id="0" />
        <mxCell id="1" parent="0" />
        <mxCell id="i-hhsm2ejsuT7kMgwnA_-2" value="" style="swimlane;html=1;startSize=20;fontStyle=0;collapsible=0;horizontal=0;swimlaneLine=1;swimlaneFillColor=#ffffff;strokeWidth=2;whiteSpace=wrap;container=0;movable=1;resizable=1;rotatable=1;deletable=1;editable=1;locked=0;connectable=1;" parent="1" vertex="1">
          <mxGeometry x="110" y="70" width="1560" height="260" as="geometry" />
        </mxCell>
        <mxCell id="i-hhsm2ejsuT7kMgwnA_-3" value="Чат-бот" style="text;html=1;strokeColor=none;fillColor=none;align=center;verticalAlign=middle;whiteSpace=wrap;rounded=0;rotation=-90;" parent="i-hhsm2ejsuT7kMgwnA_-2" vertex="1">
          <mxGeometry x="-20" y="115" width="60" height="30" as="geometry" />
        </mxCell>
        <mxCell id="i-hhsm2ejsuT7kMgwnA_-44" value="Предложение ввода пункта заметки" style="points=[[0.25,0,0],[0.5,0,0],[0.75,0,0],[1,0.25,0],[1,0.5,0],[1,0.75,0],[0.75,1,0],[0.5,1,0],[0.25,1,0],[0,0.75,0],[0,0.5,0],[0,0.25,0]];shape=mxgraph.bpmn.task;whiteSpace=wrap;rectStyle=rounded;size=10;html=1;container=1;expand=0;collapsible=0;taskMarker=abstract;" parent="i-hhsm2ejsuT7kMgwnA_-2" vertex="1">
          <mxGeometry x="494" y="88.75" width="90" height="56.25" as="geometry" />
        </mxCell>
        <mxCell id="_a9MNdBCBUFM0s8_7BtF-6" style="edgeStyle=orthogonalEdgeStyle;rounded=0;orthogonalLoop=1;jettySize=auto;html=1;exitX=1;exitY=0.5;exitDx=0;exitDy=0;exitPerimeter=0;entryX=0;entryY=0.5;entryDx=0;entryDy=0;entryPerimeter=0;" edge="1" parent="i-hhsm2ejsuT7kMgwnA_-2" source="_a9MNdBCBUFM0s8_7BtF-4" target="i-hhsm2ejsuT7kMgwnA_-44">
          <mxGeometry relative="1" as="geometry" />
        </mxCell>
        <mxCell id="_a9MNdBCBUFM0s8_7BtF-14" style="rounded=0;orthogonalLoop=1;jettySize=auto;html=1;exitX=0.5;exitY=0;exitDx=0;exitDy=0;exitPerimeter=0;entryX=1;entryY=0.5;entryDx=0;entryDy=0;dashed=1;" edge="1" parent="i-hhsm2ejsuT7kMgwnA_-2" source="_a9MNdBCBUFM0s8_7BtF-4" target="dOET-UIL9v6FBq_wsm_4-1">
          <mxGeometry relative="1" as="geometry" />
        </mxCell>
        <mxCell id="_a9MNdBCBUFM0s8_7BtF-4" value="Запись данных названия" style="points=[[0.25,0,0],[0.5,0,0],[0.75,0,0],[1,0.25,0],[1,0.5,0],[1,0.75,0],[0.75,1,0],[0.5,1,0],[0.25,1,0],[0,0.75,0],[0,0.5,0],[0,0.25,0]];shape=mxgraph.bpmn.task;whiteSpace=wrap;rectStyle=rounded;size=10;html=1;container=1;expand=0;collapsible=0;taskMarker=abstract;" vertex="1" parent="i-hhsm2ejsuT7kMgwnA_-2">
          <mxGeometry x="380" y="88.75" width="90" height="56.25" as="geometry" />
        </mxCell>
        <mxCell id="dOET-UIL9v6FBq_wsm_4-1" value="" style="shape=datastore;html=1;labelPosition=center;verticalLabelPosition=bottom;align=center;verticalAlign=top;" parent="i-hhsm2ejsuT7kMgwnA_-2" vertex="1">
          <mxGeometry x="300" y="10" width="70" height="70" as="geometry" />
        </mxCell>
        <mxCell id="_a9MNdBCBUFM0s8_7BtF-8" value="Запись данных пунтка" style="points=[[0.25,0,0],[0.5,0,0],[0.75,0,0],[1,0.25,0],[1,0.5,0],[1,0.75,0],[0.75,1,0],[0.5,1,0],[0.25,1,0],[0,0.75,0],[0,0.5,0],[0,0.25,0]];shape=mxgraph.bpmn.task;whiteSpace=wrap;rectStyle=rounded;size=10;html=1;container=1;expand=0;collapsible=0;taskMarker=abstract;" vertex="1" parent="i-hhsm2ejsuT7kMgwnA_-2">
          <mxGeometry x="750" y="88.75" width="90" height="56.25" as="geometry" />
        </mxCell>
        <mxCell id="i-hhsm2ejsuT7kMgwnA_-48" value="Предложение ввода количества баллов за пункт" style="points=[[0.25,0,0],[0.5,0,0],[0.75,0,0],[1,0.25,0],[1,0.5,0],[1,0.75,0],[0.75,1,0],[0.5,1,0],[0.25,1,0],[0,0.75,0],[0,0.5,0],[0,0.25,0]];shape=mxgraph.bpmn.task;whiteSpace=wrap;rectStyle=rounded;size=10;html=1;container=1;expand=0;collapsible=0;taskMarker=abstract;" parent="i-hhsm2ejsuT7kMgwnA_-2" vertex="1">
          <mxGeometry x="874" y="80" width="100" height="70" as="geometry" />
        </mxCell>
        <mxCell id="_a9MNdBCBUFM0s8_7BtF-10" style="edgeStyle=orthogonalEdgeStyle;rounded=0;orthogonalLoop=1;jettySize=auto;html=1;exitX=1;exitY=0.5;exitDx=0;exitDy=0;exitPerimeter=0;entryX=0;entryY=0.5;entryDx=0;entryDy=0;entryPerimeter=0;" edge="1" parent="i-hhsm2ejsuT7kMgwnA_-2" source="_a9MNdBCBUFM0s8_7BtF-8" target="i-hhsm2ejsuT7kMgwnA_-48">
          <mxGeometry relative="1" as="geometry" />
        </mxCell>
        <mxCell id="i-hhsm2ejsuT7kMgwnA_-54" value="Предложение ввести&lt;br&gt;&amp;nbsp;еще пункт или выйти" style="points=[[0.25,0.25,0],[0.5,0,0],[0.75,0.25,0],[1,0.5,0],[0.75,0.75,0],[0.5,1,0],[0.25,0.75,0],[0,0.5,0]];shape=mxgraph.bpmn.gateway2;html=1;verticalLabelPosition=bottom;labelBackgroundColor=#ffffff;verticalAlign=top;align=center;perimeter=rhombusPerimeter;outlineConnect=0;outline=none;symbol=none;" parent="i-hhsm2ejsuT7kMgwnA_-2" vertex="1">
          <mxGeometry x="1290" y="83.13" width="50" height="50" as="geometry" />
        </mxCell>
        <mxCell id="_a9MNdBCBUFM0s8_7BtF-11" value="Запись данных баллов" style="points=[[0.25,0,0],[0.5,0,0],[0.75,0,0],[1,0.25,0],[1,0.5,0],[1,0.75,0],[0.75,1,0],[0.5,1,0],[0.25,1,0],[0,0.75,0],[0,0.5,0],[0,0.25,0]];shape=mxgraph.bpmn.task;whiteSpace=wrap;rectStyle=rounded;size=10;html=1;container=1;expand=0;collapsible=0;taskMarker=abstract;" vertex="1" parent="i-hhsm2ejsuT7kMgwnA_-2">
          <mxGeometry x="1150" y="80" width="90" height="56.25" as="geometry" />
        </mxCell>
        <mxCell id="_a9MNdBCBUFM0s8_7BtF-12" style="edgeStyle=orthogonalEdgeStyle;rounded=0;orthogonalLoop=1;jettySize=auto;html=1;exitX=1;exitY=0.5;exitDx=0;exitDy=0;exitPerimeter=0;entryX=0;entryY=0.5;entryDx=0;entryDy=0;entryPerimeter=0;" edge="1" parent="i-hhsm2ejsuT7kMgwnA_-2" source="_a9MNdBCBUFM0s8_7BtF-11" target="i-hhsm2ejsuT7kMgwnA_-54">
          <mxGeometry relative="1" as="geometry" />
        </mxCell>
        <mxCell id="dOET-UIL9v6FBq_wsm_4-2" value="" style="shape=datastore;html=1;labelPosition=center;verticalLabelPosition=bottom;align=center;verticalAlign=top;" parent="i-hhsm2ejsuT7kMgwnA_-2" vertex="1">
          <mxGeometry x="770" y="180" width="70" height="70" as="geometry" />
        </mxCell>
        <mxCell id="dOET-UIL9v6FBq_wsm_4-3" value="" style="shape=datastore;html=1;labelPosition=center;verticalLabelPosition=bottom;align=center;verticalAlign=top;" parent="i-hhsm2ejsuT7kMgwnA_-2" vertex="1">
          <mxGeometry x="1160" y="170" width="70" height="70" as="geometry" />
        </mxCell>
        <mxCell id="_a9MNdBCBUFM0s8_7BtF-15" style="rounded=0;orthogonalLoop=1;jettySize=auto;html=1;exitX=0.5;exitY=0;exitDx=0;exitDy=0;entryX=0.5;entryY=1;entryDx=0;entryDy=0;entryPerimeter=0;dashed=1;endArrow=none;endFill=0;startArrow=classic;startFill=1;" edge="1" parent="i-hhsm2ejsuT7kMgwnA_-2" source="dOET-UIL9v6FBq_wsm_4-2" target="_a9MNdBCBUFM0s8_7BtF-8">
          <mxGeometry relative="1" as="geometry" />
        </mxCell>
        <mxCell id="_a9MNdBCBUFM0s8_7BtF-16" style="rounded=0;orthogonalLoop=1;jettySize=auto;html=1;exitX=0.5;exitY=0;exitDx=0;exitDy=0;entryX=0.5;entryY=1;entryDx=0;entryDy=0;entryPerimeter=0;dashed=1;endArrow=none;endFill=0;startArrow=classic;startFill=1;" edge="1" parent="i-hhsm2ejsuT7kMgwnA_-2" source="dOET-UIL9v6FBq_wsm_4-3" target="_a9MNdBCBUFM0s8_7BtF-11">
          <mxGeometry relative="1" as="geometry" />
        </mxCell>
        <mxCell id="i-hhsm2ejsuT7kMgwnA_-19" value="" style="swimlane;html=1;startSize=20;fontStyle=0;collapsible=0;horizontal=0;swimlaneLine=1;swimlaneFillColor=#ffffff;strokeWidth=2;whiteSpace=wrap;container=0;labelPosition=center;verticalLabelPosition=bottom;align=center;verticalAlign=top;movable=1;resizable=1;rotatable=1;deletable=1;editable=1;locked=0;connectable=1;" parent="1" vertex="1">
          <mxGeometry x="110" y="330" width="1560" height="220" as="geometry" />
        </mxCell>
        <mxCell id="i-hhsm2ejsuT7kMgwnA_-20" value="Пользователь" style="text;html=1;strokeColor=none;fillColor=none;align=center;verticalAlign=middle;whiteSpace=wrap;rounded=0;rotation=-90;" parent="i-hhsm2ejsuT7kMgwnA_-19" vertex="1">
          <mxGeometry x="-20" y="90" width="60" height="30" as="geometry" />
        </mxCell>
        <mxCell id="i-hhsm2ejsuT7kMgwnA_-39" value="Выбор пункта меню" style="ellipse;whiteSpace=wrap;html=1;aspect=fixed;labelPosition=center;verticalLabelPosition=bottom;align=center;verticalAlign=top;" parent="i-hhsm2ejsuT7kMgwnA_-19" vertex="1">
          <mxGeometry x="40" y="40" width="55" height="55" as="geometry" />
        </mxCell>
        <mxCell id="i-hhsm2ejsuT7kMgwnA_-43" value="Ввод названия" style="points=[[0.25,0,0],[0.5,0,0],[0.75,0,0],[1,0.25,0],[1,0.5,0],[1,0.75,0],[0.75,1,0],[0.5,1,0],[0.25,1,0],[0,0.75,0],[0,0.5,0],[0,0.25,0]];shape=mxgraph.bpmn.task;whiteSpace=wrap;rectStyle=rounded;size=10;html=1;container=1;expand=0;collapsible=0;taskMarker=abstract;" parent="i-hhsm2ejsuT7kMgwnA_-19" vertex="1">
          <mxGeometry x="270" y="40" width="60" height="52.5" as="geometry" />
        </mxCell>
        <mxCell id="i-hhsm2ejsuT7kMgwnA_-61" style="edgeStyle=orthogonalEdgeStyle;rounded=0;orthogonalLoop=1;jettySize=auto;html=1;exitX=1;exitY=0.5;exitDx=0;exitDy=0;exitPerimeter=0;entryX=0;entryY=0.5;entryDx=0;entryDy=0;entryPerimeter=0;" parent="i-hhsm2ejsuT7kMgwnA_-19" source="i-hhsm2ejsuT7kMgwnA_-58" target="i-hhsm2ejsuT7kMgwnA_-60" edge="1">
          <mxGeometry relative="1" as="geometry" />
        </mxCell>
        <mxCell id="i-hhsm2ejsuT7kMgwnA_-46" value="Ввод пункта заметки" style="points=[[0.25,0,0],[0.5,0,0],[0.75,0,0],[1,0.25,0],[1,0.5,0],[1,0.75,0],[0.75,1,0],[0.5,1,0],[0.25,1,0],[0,0.75,0],[0,0.5,0],[0,0.25,0]];shape=mxgraph.bpmn.task;whiteSpace=wrap;rectStyle=rounded;size=10;html=1;container=1;expand=0;collapsible=0;taskMarker=abstract;" parent="i-hhsm2ejsuT7kMgwnA_-19" vertex="1">
          <mxGeometry x="640" y="49.25" width="70" height="54" as="geometry" />
        </mxCell>
        <mxCell id="i-hhsm2ejsuT7kMgwnA_-51" value="Ввод баллов" style="points=[[0.25,0,0],[0.5,0,0],[0.75,0,0],[1,0.25,0],[1,0.5,0],[1,0.75,0],[0.75,1,0],[0.5,1,0],[0.25,1,0],[0,0.75,0],[0,0.5,0],[0,0.25,0]];shape=mxgraph.bpmn.task;whiteSpace=wrap;rectStyle=rounded;size=10;html=1;container=1;expand=0;collapsible=0;taskMarker=abstract;" parent="i-hhsm2ejsuT7kMgwnA_-19" vertex="1">
          <mxGeometry x="1020" y="49.25" width="70" height="54" as="geometry" />
        </mxCell>
        <mxCell id="i-hhsm2ejsuT7kMgwnA_-58" value="Нажать на кнопку &#39;назад&#39;" style="points=[[0.25,0,0],[0.5,0,0],[0.75,0,0],[1,0.25,0],[1,0.5,0],[1,0.75,0],[0.75,1,0],[0.5,1,0],[0.25,1,0],[0,0.75,0],[0,0.5,0],[0,0.25,0]];shape=mxgraph.bpmn.task;whiteSpace=wrap;rectStyle=rounded;size=10;html=1;container=1;expand=0;collapsible=0;taskMarker=abstract;" parent="i-hhsm2ejsuT7kMgwnA_-19" vertex="1">
          <mxGeometry x="1354" y="48" width="80" height="54.5" as="geometry" />
        </mxCell>
        <mxCell id="i-hhsm2ejsuT7kMgwnA_-60" value="" style="points=[[0.145,0.145,0],[0.5,0,0],[0.855,0.145,0],[1,0.5,0],[0.855,0.855,0],[0.5,1,0],[0.145,0.855,0],[0,0.5,0]];shape=mxgraph.bpmn.event;html=1;verticalLabelPosition=bottom;labelBackgroundColor=#ffffff;verticalAlign=top;align=center;perimeter=ellipsePerimeter;outlineConnect=0;aspect=fixed;outline=end;symbol=terminate2;" parent="i-hhsm2ejsuT7kMgwnA_-19" vertex="1">
          <mxGeometry x="1494" y="50.5" width="50" height="50" as="geometry" />
        </mxCell>
        <mxCell id="i-hhsm2ejsuT7kMgwnA_-42" style="edgeStyle=orthogonalEdgeStyle;rounded=0;orthogonalLoop=1;jettySize=auto;html=1;exitX=1;exitY=0.5;exitDx=0;exitDy=0;exitPerimeter=0;entryX=0;entryY=0.5;entryDx=0;entryDy=0;entryPerimeter=0;" parent="1" source="i-hhsm2ejsuT7kMgwnA_-40" target="i-hhsm2ejsuT7kMgwnA_-43" edge="1">
          <mxGeometry relative="1" as="geometry">
            <mxPoint x="360" y="390" as="targetPoint" />
          </mxGeometry>
        </mxCell>
        <mxCell id="i-hhsm2ejsuT7kMgwnA_-41" style="edgeStyle=orthogonalEdgeStyle;rounded=0;orthogonalLoop=1;jettySize=auto;html=1;exitX=1;exitY=0.5;exitDx=0;exitDy=0;entryX=0;entryY=0.5;entryDx=0;entryDy=0;entryPerimeter=0;" parent="1" source="i-hhsm2ejsuT7kMgwnA_-39" target="i-hhsm2ejsuT7kMgwnA_-40" edge="1">
          <mxGeometry relative="1" as="geometry" />
        </mxCell>
        <mxCell id="i-hhsm2ejsuT7kMgwnA_-40" value="Предложение ввода названия заметки" style="points=[[0.25,0,0],[0.5,0,0],[0.75,0,0],[1,0.25,0],[1,0.5,0],[1,0.75,0],[0.75,1,0],[0.5,1,0],[0.25,1,0],[0,0.75,0],[0,0.5,0],[0,0.25,0]];shape=mxgraph.bpmn.task;whiteSpace=wrap;rectStyle=rounded;size=10;html=1;container=1;expand=0;collapsible=0;taskMarker=abstract;" parent="1" vertex="1">
          <mxGeometry x="250" y="143.13" width="90" height="60" as="geometry" />
        </mxCell>
        <mxCell id="_a9MNdBCBUFM0s8_7BtF-5" style="edgeStyle=orthogonalEdgeStyle;rounded=0;orthogonalLoop=1;jettySize=auto;html=1;exitX=1;exitY=0.5;exitDx=0;exitDy=0;exitPerimeter=0;entryX=0;entryY=0.5;entryDx=0;entryDy=0;entryPerimeter=0;" edge="1" parent="1" source="i-hhsm2ejsuT7kMgwnA_-43" target="_a9MNdBCBUFM0s8_7BtF-4">
          <mxGeometry relative="1" as="geometry" />
        </mxCell>
        <mxCell id="i-hhsm2ejsuT7kMgwnA_-47" style="edgeStyle=orthogonalEdgeStyle;rounded=0;orthogonalLoop=1;jettySize=auto;html=1;exitX=1;exitY=0.5;exitDx=0;exitDy=0;exitPerimeter=0;entryX=0;entryY=0.5;entryDx=0;entryDy=0;entryPerimeter=0;" parent="1" source="i-hhsm2ejsuT7kMgwnA_-44" target="i-hhsm2ejsuT7kMgwnA_-46" edge="1">
          <mxGeometry relative="1" as="geometry" />
        </mxCell>
        <mxCell id="_a9MNdBCBUFM0s8_7BtF-9" style="edgeStyle=orthogonalEdgeStyle;rounded=0;orthogonalLoop=1;jettySize=auto;html=1;exitX=1;exitY=0.5;exitDx=0;exitDy=0;exitPerimeter=0;entryX=0;entryY=0.5;entryDx=0;entryDy=0;entryPerimeter=0;" edge="1" parent="1" source="i-hhsm2ejsuT7kMgwnA_-46" target="_a9MNdBCBUFM0s8_7BtF-8">
          <mxGeometry relative="1" as="geometry" />
        </mxCell>
        <mxCell id="i-hhsm2ejsuT7kMgwnA_-52" style="edgeStyle=orthogonalEdgeStyle;rounded=0;orthogonalLoop=1;jettySize=auto;html=1;exitX=1;exitY=0.5;exitDx=0;exitDy=0;exitPerimeter=0;entryX=0;entryY=0.5;entryDx=0;entryDy=0;entryPerimeter=0;" parent="1" source="i-hhsm2ejsuT7kMgwnA_-48" target="i-hhsm2ejsuT7kMgwnA_-51" edge="1">
          <mxGeometry relative="1" as="geometry" />
        </mxCell>
        <mxCell id="i-hhsm2ejsuT7kMgwnA_-59" style="edgeStyle=orthogonalEdgeStyle;rounded=0;orthogonalLoop=1;jettySize=auto;html=1;exitX=1;exitY=0.5;exitDx=0;exitDy=0;exitPerimeter=0;entryX=0.5;entryY=0;entryDx=0;entryDy=0;entryPerimeter=0;" parent="1" source="i-hhsm2ejsuT7kMgwnA_-54" target="i-hhsm2ejsuT7kMgwnA_-58" edge="1">
          <mxGeometry relative="1" as="geometry" />
        </mxCell>
        <mxCell id="_a9MNdBCBUFM0s8_7BtF-18" value="выход" style="edgeLabel;html=1;align=center;verticalAlign=middle;resizable=0;points=[];" vertex="1" connectable="0" parent="i-hhsm2ejsuT7kMgwnA_-59">
          <mxGeometry x="0.1965" y="3" relative="1" as="geometry">
            <mxPoint x="13" y="-1" as="offset" />
          </mxGeometry>
        </mxCell>
        <mxCell id="i-hhsm2ejsuT7kMgwnA_-65" style="edgeStyle=orthogonalEdgeStyle;rounded=0;orthogonalLoop=1;jettySize=auto;html=1;exitX=0.5;exitY=0;exitDx=0;exitDy=0;exitPerimeter=0;entryX=0.5;entryY=0;entryDx=0;entryDy=0;entryPerimeter=0;" parent="1" source="i-hhsm2ejsuT7kMgwnA_-54" target="i-hhsm2ejsuT7kMgwnA_-46" edge="1">
          <mxGeometry relative="1" as="geometry" />
        </mxCell>
        <mxCell id="_a9MNdBCBUFM0s8_7BtF-17" value="Ввод нового пунтка" style="edgeLabel;html=1;align=center;verticalAlign=middle;resizable=0;points=[];" vertex="1" connectable="0" parent="i-hhsm2ejsuT7kMgwnA_-65">
          <mxGeometry x="-0.3505" y="3" relative="1" as="geometry">
            <mxPoint x="-1" y="-12" as="offset" />
          </mxGeometry>
        </mxCell>
        <mxCell id="_a9MNdBCBUFM0s8_7BtF-13" style="edgeStyle=orthogonalEdgeStyle;rounded=0;orthogonalLoop=1;jettySize=auto;html=1;exitX=1;exitY=0.5;exitDx=0;exitDy=0;exitPerimeter=0;entryX=0;entryY=0.5;entryDx=0;entryDy=0;entryPerimeter=0;" edge="1" parent="1" source="i-hhsm2ejsuT7kMgwnA_-51" target="_a9MNdBCBUFM0s8_7BtF-11">
          <mxGeometry relative="1" as="geometry" />
        </mxCell>
      </root>
    </mxGraphModel>
  </diagram>
</mxfile>
